<?xml version="1.0" encoding="utf-8"?>
<!-- Generator: Adobe Illustrator 17.1.0, SVG Export Plug-In . SVG Version: 6.00 Build 0)  -->
<!DOCTYPE svg PUBLIC "-//W3C//DTD SVG 1.1//EN" "http://www.w3.org/Graphics/SVG/1.1/DTD/svg11.dtd">
<svg version="1.1" id="Layer_1" xmlns="http://www.w3.org/2000/svg" xmlns:xlink="http://www.w3.org/1999/xlink" x="0px" y="0px"
	 viewBox="56.3 109.2 533.2 562.3" enable-background="new 56.3 109.2 533.2 562.3" xml:space="preserve">
<g>
	<g enable-background="new    ">
		<path fill="#27103F" d="M516.5,493.4l64.8,70.4h-73.7L471.4,525c-39.2,18.3-76.4,27.4-111.7,27.4c-63.4,0-117.3-21.7-161.6-65.1
			c-44.3-43.4-66.4-96.1-66.4-157.9c0-59.6,22.4-110.7,67.1-153.3c44.8-42.6,98.7-63.9,161.9-63.9c62.1,0,115.5,21.2,160.2,63.5
			s67.1,92.9,67.1,151.7C588.1,394,564.2,449.3,516.5,493.4z M429,479.6l-90.7-97.1H412l63.6,68.1c35-33.5,52.5-73.2,52.5-119
			c0-45.6-16.3-84-49-115c-32.7-31-73.2-46.5-121.6-46.5c-46.1,0-85.3,15.8-117.6,47.3c-32.3,31.5-48.5,69.8-48.5,114.7
			c0,44.9,16.5,83.1,49.6,114.4s73.4,47,120.9,47C381.8,493.4,404.2,488.8,429,479.6z"/>
	</g>
	<g enable-background="new    ">
		<path d="M516.5,493.4l64.8,70.4h-73.7L471.4,525c-39.2,18.3-76.4,27.4-111.7,27.4c-63.4,0-117.3-21.7-161.6-65.1
			c-44.3-43.4-66.4-96.1-66.4-157.9c0-59.6,22.4-110.7,67.1-153.3c44.8-42.6,98.7-63.9,161.9-63.9c62.1,0,115.5,21.2,160.2,63.5
			s67.1,92.9,67.1,151.7C588.1,394,564.2,449.3,516.5,493.4z M429,479.6l-90.7-97.1H412l63.6,68.1c35-33.5,52.5-73.2,52.5-119
			c0-45.6-16.3-84-49-115c-32.7-31-73.2-46.5-121.6-46.5c-46.1,0-85.3,15.8-117.6,47.3c-32.3,31.5-48.5,69.8-48.5,114.7
			c0,44.9,16.5,83.1,49.6,114.4s73.4,47,120.9,47C381.8,493.4,404.2,488.8,429,479.6z"/>
	</g>
</g>
<g enable-background="new    ">
	<path d="M70.1,578.9h49V591H82.1v22.1h37.1V625H82.2v42.3H70.1V578.9z"/>
	<path d="M162.1,575.5l41.8,91.8h-12.7L181,644.7h-37.5l-10.1,22.6h-12.6L162.1,575.5z M162.1,603.1L148,634.7h28.4L162.1,603.1z"/>
	<path d="M269,588.8l-9.8,7.8c-2.6-2.7-4.9-4.7-7-6s-5.1-2-9.1-2c-4.3,0-7.9,1-10.6,2.9s-4.1,4.5-4.1,7.6c0,2.7,1.2,5,3.5,7.1
		c2.4,2.1,6.4,4.3,12.1,6.7c5.7,2.4,10.1,4.7,13.3,6.8c3.2,2.1,5.8,4.4,7.8,7c2,2.5,3.5,5.2,4.5,8c1,2.8,1.5,5.8,1.5,8.9
		c0,7.4-2.7,13.6-8,18.8c-5.3,5.2-11.8,7.8-19.4,7.8c-7.4,0-13.9-2-19.6-6.1c-5.7-4-10-10.1-13.1-18.2l12.1-3.4
		c4.4,10,11.1,14.9,20.2,14.9c4.4,0,8.1-1.3,11-3.9c2.9-2.6,4.4-6,4.4-10c0-2.4-0.8-4.8-2.3-7.2c-1.5-2.4-3.4-4.4-5.7-6
		c-2.3-1.6-5.9-3.4-10.8-5.4c-5-2-8.8-3.9-11.4-5.6s-5-3.7-6.9-6c-2-2.3-3.4-4.7-4.3-7s-1.4-4.8-1.4-7.4c0-6.3,2.5-11.7,7.6-16.2
		c5.1-4.5,11.3-6.7,18.5-6.7c4.8,0,9.7,1,14.6,3.1C261.6,581.4,265.7,584.5,269,588.8z"/>
	<path d="M286.5,578.9h12.1v34h42.3v-34h11.9v88.4h-11.9v-42.5h-42.3v42.5h-12.1V578.9z"/>
	<path d="M371.7,578.9h11.9v88.4h-11.9V578.9z"/>
	<path d="M399.4,622.6c0-12.8,4.8-23.7,14.4-32.8c9.6-9.1,21.2-13.7,34.7-13.7c13.2,0,24.5,4.6,34.1,13.8
		c9.5,9.2,14.3,20.1,14.3,32.7c0,13.4-4.7,24.7-14.1,33.9c-9.4,9.2-21,13.8-34.7,13.8c-13.5,0-25-4.6-34.5-13.9
		C404.2,647.1,399.4,635.9,399.4,622.6z M484.1,623.2c0-9.8-3.5-18-10.6-24.7c-7-6.7-15.7-10-26-10c-9.8,0-18.1,3.4-25.1,10.2
		c-7,6.8-10.4,15-10.4,24.5c0,9.7,3.6,17.8,10.7,24.5c7.2,6.7,15.9,10,26.3,10c9.5,0,17.8-3.4,24.7-10.2
		C480.7,640.7,484.1,632.6,484.1,623.2z"/>
	<path d="M512,575.4l65.4,67.2v-63.7h12.1v92.5l-65.4-66.9v62.8H512V575.4z"/>
</g>
<g>
	<g>
		<path fill="#DA9F92" d="M333.1,171.7l-61.9,21.8c-9.1-8.4-9.8-9.4-19.8-15.7c-10-6.3-24.4-9.4-43.2-9.4c-20.6,0-37.3,4.7-50.1,14
			c-12.8,9.3-19.2,21.3-19.2,35.9c0,12.7,5.6,23.9,16.8,33.7c11.2,9.7,30.3,20.4,57.2,32c26.9,11.6,47.9,22.4,62.9,32.3
			c15,10,27.3,21,37,33.1c9.6,12.1,16.8,24.8,21.5,38.2c4.7,13.4,7.1,27.5,7.1,42.4c0,34.9-12.7,64.6-38,89.2
			c-25.4,24.6-56,36.8-92,36.8c-35.1,0-66.1-9.6-93-28.8c-26.9-19.2-47.6-48-62.1-86.4l57.3-16.1c20.8,47.2,52.8,70.8,95.8,70.8
			c20.9,0,38.2-6.2,52-18.7c13.8-12.5,20.7-28.2,20.7-47.3c0-11.4-3.6-22.8-10.9-34.3c-7.3-11.5-16.3-21-27-28.4
			c-10.8-7.4-27.9-16-51.4-25.6c-23.5-9.6-41.6-18.5-54.2-26.5c-12.7-8-23.6-17.5-32.9-28.6s-16-22.1-20.3-33.1
			c-4.3-11-6.4-22.7-6.4-35.2c0-30,12.1-55.7,36.2-76.8c24.1-21.2,53.4-31.8,87.9-31.8c22.8,0,46,4.9,69.5,14.8
			C296.1,133.9,317.8,150.1,333.1,171.7z"/>
	</g>
	<g>
		<path fill="#DA9F92" d="M333.1,171.7l-61.9,21.8c-9.1-8.4-9.8-9.4-19.8-15.7c-10-6.3-24.4-9.4-43.2-9.4c-20.6,0-37.3,4.7-50.1,14
			c-12.8,9.3-19.2,21.3-19.2,35.9c0,12.7,5.6,23.9,16.8,33.7c11.2,9.7,30.3,20.4,57.2,32c26.9,11.6,47.9,22.4,62.9,32.3
			c15,10,27.3,21,37,33.1c9.6,12.1,16.8,24.8,21.5,38.2c4.7,13.4,7.1,27.5,7.1,42.4c0,34.9-12.7,64.6-38,89.2
			c-25.4,24.6-56,36.8-92,36.8c-35.1,0-66.1-9.6-93-28.8c-26.9-19.2-47.6-48-62.1-86.4l57.3-16.1c20.8,47.2,52.8,70.8,95.8,70.8
			c20.9,0,38.2-6.2,52-18.7c13.8-12.5,20.7-28.2,20.7-47.3c0-11.4-3.6-22.8-10.9-34.3c-7.3-11.5-16.3-21-27-28.4
			c-10.8-7.4-27.9-16-51.4-25.6c-23.5-9.6-41.6-18.5-54.2-26.5c-12.7-8-23.6-17.5-32.9-28.6s-16-22.1-20.3-33.1
			c-4.3-11-6.4-22.7-6.4-35.2c0-30,12.1-55.7,36.2-76.8c24.1-21.2,53.4-31.8,87.9-31.8c22.8,0,46,4.9,69.5,14.8
			C296.1,133.9,317.8,150.1,333.1,171.7z"/>
	</g>
</g>
</svg>
