<?xml version="1.0" encoding="utf-8"?>
<!-- Generator: Adobe Illustrator 17.1.0, SVG Export Plug-In . SVG Version: 6.00 Build 0)  -->
<!DOCTYPE svg PUBLIC "-//W3C//DTD SVG 1.1//EN" "http://www.w3.org/Graphics/SVG/1.1/DTD/svg11.dtd">
<svg version="1.1" id="Layer_1" xmlns="http://www.w3.org/2000/svg" xmlns:xlink="http://www.w3.org/1999/xlink" x="0px" y="0px"
	 viewBox="0 0 215.242 213.976" enable-background="new 0 0 215.242 213.976" xml:space="preserve">
<g>
	<text transform="matrix(1 0 0 1 37.4362 157.0939)" fill="#27103F" font-family="'TwCenMT-Regular'" font-size="233.6291">Q</text>
	<text transform="matrix(1 0 0 1 37.4362 157.0939)" font-family="'TwCenMT-Regular'" font-size="233.6291">Q</text>
</g>
<text transform="matrix(1 0 0 1 21.7596 202.4286)" font-family="'TwCenMT-Regular'" font-size="50">FASHION</text>
<g>
	<g>
		<path fill="#DA9F92" d="M117.166,28.097l-21.768,7.675c-3.193-2.956-3.45-3.312-6.954-5.512c-3.505-2.2-8.569-3.3-15.191-3.3
			c-7.241,0-13.116,1.636-17.621,4.907c-4.505,3.271-6.758,7.485-6.758,12.642c0,4.466,1.967,8.41,5.902,11.835
			c3.934,3.425,10.641,7.174,20.118,11.245C84.372,71.659,91.75,75.45,97.03,78.96c5.278,3.51,9.613,7.387,13.004,11.628
			c3.391,4.243,5.913,8.717,7.57,13.421c1.657,4.706,2.486,9.682,2.486,14.927c0,12.265-4.458,22.718-13.375,31.357
			c-8.917,8.638-19.706,12.958-32.365,12.958c-12.352,0-23.257-3.378-32.712-10.132c-9.458-6.754-16.733-16.887-21.828-30.397
			l20.148-5.674c7.333,16.599,18.565,24.896,33.697,24.896c7.333,0,13.433-2.193,18.296-6.581c4.864-4.386,7.295-9.928,7.295-16.624
			c0-4.002-1.276-8.023-3.825-12.065c-2.551-4.04-5.719-7.369-9.504-9.985c-3.787-2.616-9.81-5.62-18.069-9.007
			c-8.262-3.387-14.618-6.49-19.072-9.306c-4.455-2.815-8.31-6.171-11.563-10.067c-3.253-3.896-5.636-7.771-7.147-11.628
			S27.8,48.699,27.8,44.302c0-10.568,4.245-19.575,12.738-27.019C49.029,9.84,59.334,6.116,71.455,6.116
			c8.028,0,16.172,1.737,24.433,5.211C104.148,14.801,111.776,20.502,117.166,28.097z"/>
	</g>
	<g>
		<path fill="#DA9F92" d="M117.166,28.097l-21.768,7.675c-3.193-2.956-3.45-3.312-6.954-5.512c-3.505-2.2-8.569-3.3-15.191-3.3
			c-7.241,0-13.116,1.636-17.621,4.907c-4.505,3.271-6.758,7.485-6.758,12.642c0,4.466,1.967,8.41,5.902,11.835
			c3.934,3.425,10.641,7.174,20.118,11.245C84.372,71.659,91.75,75.45,97.03,78.96c5.278,3.51,9.613,7.387,13.004,11.628
			c3.391,4.243,5.913,8.717,7.57,13.421c1.657,4.706,2.486,9.682,2.486,14.927c0,12.265-4.458,22.718-13.375,31.357
			c-8.917,8.638-19.706,12.958-32.365,12.958c-12.352,0-23.257-3.378-32.712-10.132c-9.458-6.754-16.733-16.887-21.828-30.397
			l20.148-5.674c7.333,16.599,18.565,24.896,33.697,24.896c7.333,0,13.433-2.193,18.296-6.581c4.864-4.386,7.295-9.928,7.295-16.624
			c0-4.002-1.276-8.023-3.825-12.065c-2.551-4.04-5.719-7.369-9.504-9.985c-3.787-2.616-9.81-5.62-18.069-9.007
			c-8.262-3.387-14.618-6.49-19.072-9.306c-4.455-2.815-8.31-6.171-11.563-10.067c-3.253-3.896-5.636-7.771-7.147-11.628
			S27.8,48.699,27.8,44.302c0-10.568,4.245-19.575,12.738-27.019C49.029,9.84,59.334,6.116,71.455,6.116
			c8.028,0,16.172,1.737,24.433,5.211C104.148,14.801,111.776,20.502,117.166,28.097z"/>
	</g>
</g>
</svg>
